<svg id="Layer_1" data-name="Layer 1" xmlns="http://www.w3.org/2000/svg" viewBox="0 0 48 48"><defs><style>.cls-1{fill:#2c2c2c;}</style></defs><title>Artboard 1</title><path id="_64" data-name=" 64" class="cls-1" d="M43.31314,11.4431c-3.41068-3.66417-8.21081-5.15-13.28072-5.15-4.8639,0-9.68111,1.55283-12.84551,4.92427A15.448,15.448,0,0,0,0,26.57381,15.91334,15.91334,0,0,0,4.33115,37.36a14.97574,14.97574,0,0,0,11.233,4.33134H30.28626A17.46591,17.46591,0,0,0,47.99824,24.475q.00407-.28656-.00127-.57314A18.23163,18.23163,0,0,0,43.31314,11.4431Zm-28.148,28.08718a12.80458,12.80458,0,1,1,8.44831-22.3727l.06268.05418L28.981,22.65527a2.28145,2.28145,0,0,1-3.27485,3.17733l-5.264-5.402A8.16882,8.16882,0,0,0,6.94479,26.60479a8.4207,8.4207,0,0,0,8.34364,8.27458l1.05072.00481.00976.02959c1.50438,2.07557,5.695,4.61651,5.695,4.61651Zm26.23-4.60536A15.19527,15.19527,0,0,1,30.43,39.61905a15.85071,15.85071,0,0,1-11.00419-4.81692l-7.0113-7.02621a2.28594,2.28594,0,0,1,1.63555-3.884,2.26067,2.26067,0,0,1,1.63535.68788l6.96206,6.98145a11.24387,11.24387,0,0,0,7.78248,3.48605,10.63713,10.63713,0,0,0,7.7077-3.332,11.323,11.323,0,0,0,3.2015-7.89318A10.95868,10.95868,0,0,0,30.39052,12.87839a9.79821,9.79821,0,0,0-6.06387,1.76811c-.0201-.01632-.5236-.35009-1.09222-.69557-.35271-.21443-.73252-.42772-1.03137-.58988-.33254-.18082-1.28582-.6485-1.853-.88291-.14113-.0584-.32336-.12528-.40012-.15238l.01594-.00864A14.88859,14.88859,0,0,1,30.39052,8.30664,15.53557,15.53557,0,0,1,45.911,23.82206a15.87958,15.87958,0,0,1-4.51592,11.10285Z"/></svg>