<svg xmlns="http://www.w3.org/2000/svg" width="96" height="96" viewBox="0 0 96 96">
  <defs>
    <style>
      .cls-1 {
        fill: #b3b3b3;
      }
    </style>
  </defs>
  <title>S_IlluImagesDoNotLoad_96</title>
  <g id="Layer_2" data-name="Layer 2">
    <path class="cls-1" d="M18.957,45.552a1,1,0,0,1-1-1V39.973a1,1,0,0,1,2,0v4.579A1,1,0,0,1,18.957,45.552Z"/>
    <circle class="cls-1" cx="19.036" cy="48.79" r="1.243"/>
    <path class="cls-1" d="M29.059,54H8.669a2.665,2.665,0,0,1-2.308-4l10.2-17.672a2.665,2.665,0,0,1,4.615,0L31.366,50a2.665,2.665,0,0,1-2.307,4Zm-10.2-21.028a.679.679,0,0,0-.6.345h0L8.068,50.99a.693.693,0,0,0,.6,1.038h20.39a.693.693,0,0,0,.6-1.038L19.464,33.318A.68.68,0,0,0,18.863,32.972Zm-1.453-.147h0Z"/>
    <g id="document_alert_lg" data-name="document alert lg">
      <path class="cls-1" d="M26.3,85A8.31,8.31,0,0,1,18,76.73V57.964a1,1,0,0,1,2,0V76.726A6.3,6.3,0,0,0,26.3,83H70.723A6.3,6.3,0,0,0,77,76.677v-48.1a6.35,6.35,0,0,0-1.871-4.459l-10.409-10.3A6.267,6.267,0,0,0,60.29,12H26.277A6.311,6.311,0,0,0,20,18.322v8.887a1,1,0,1,1-2,0V18.326A8.309,8.309,0,0,1,26.27,10H60.29a8.248,8.248,0,0,1,5.837,2.4l10.41,10.3A8.358,8.358,0,0,1,79,28.566v48.1A8.3,8.3,0,0,1,70.73,85H26.3Z"/>
    </g>
    <path class="cls-1" d="M63.929,55.541h-.076a4.888,4.888,0,0,1-3.478-1.519,5.015,5.015,0,0,1,.1-7.051A4.855,4.855,0,0,1,64,45.557a5,5,0,0,1,3.372,8.57A4.9,4.9,0,0,1,63.929,55.541Zm0-8.484a3.407,3.407,0,0,0-2.4.984,3.517,3.517,0,0,0-.074,4.941,3.4,3.4,0,0,0,2.419,1.058h0a3.492,3.492,0,0,0,.106-6.983Z"/>
    <path class="cls-1" d="M57.931,70.963h-30.7a.75.75,0,0,1-.53-1.281L41.911,54.531a1.693,1.693,0,0,1,2.415.031L58.479,69.7a.75.75,0,0,1-.548,1.262Zm-28.888-1.5H56.2L43.237,55.593a.174.174,0,0,0-.134-.053.194.194,0,0,0-.137.057Z"/>
    <path class="cls-1" d="M60.5,70.975a.75.75,0,0,1,0-1.5l5.542-.009-9.2-9.8a.412.412,0,0,0-.285-.111.4.4,0,0,0-.3.108l-2.277,2.35A.75.75,0,0,1,52.9,60.964L55.19,58.6a1.854,1.854,0,0,1,1.381-.55,1.922,1.922,0,0,1,1.35.578L68.312,69.7a.749.749,0,0,1-.545,1.263l-7.271.012Z"/>
  </g>
</svg>
