<svg xmlns="http://www.w3.org/2000/svg" x="0px" y="0px" viewBox="0 0 400 245" style="background-color:#f4f4f4">
	<g id="svgg">
		<path id="path0" d="M0.000 122.474 L 0.000 244.948 200.000 244.948 L 400.000 244.948 400.000 122.474 L 400.000 0.000 200.000 0.000 L 0.000 0.000 0.000 122.474 M269.693 69.368 C 270.167 69.730,270.828 70.392,271.162 70.837 L 271.770 71.647 271.770 122.474 L 271.770 173.301 271.157 174.185 C 270.821 174.672,270.159 175.333,269.688 175.655 L 268.830 176.240 199.967 176.303 L 131.104 176.365 129.741 175.024 C 128.825 174.122,128.330 173.419,128.234 172.879 C 127.764 170.257,128.235 71.641,128.720 71.044 C 128.990 70.712,129.611 70.022,130.101 69.512 L 130.992 68.583 199.911 68.645 L 268.830 68.708 269.693 69.368 M199.204 77.584 L 137.171 77.649 137.175 108.696 C 137.177 125.772,137.273 139.892,137.388 140.074 C 137.542 140.316,141.540 136.459,152.293 125.696 C 162.718 115.263,167.301 110.836,168.063 110.465 C 168.653 110.178,169.317 109.848,169.537 109.732 C 170.270 109.348,172.791 109.204,174.333 109.457 C 176.798 109.861,177.767 110.729,194.611 127.617 C 213.203 146.257,212.233 145.330,212.919 145.113 C 213.205 145.022,216.313 142.084,219.824 138.583 C 227.766 130.667,228.367 130.185,230.907 129.699 C 233.121 129.276,234.810 129.226,235.028 129.577 C 235.111 129.712,235.376 129.822,235.616 129.822 C 236.794 129.822,239.521 132.295,250.700 143.498 C 259.306 152.123,262.505 155.184,262.647 154.930 C 262.892 154.493,262.887 78.097,262.643 77.859 C 262.298 77.524,260.942 77.518,199.204 77.584 M241.679 89.626 C 250.118 91.535,253.552 100.261,249.002 108.233 C 246.533 112.561,237.369 115.062,233.925 112.349 C 233.723 112.190,233.132 111.843,232.611 111.579 C 226.356 108.406,225.247 98.444,230.547 93.035 C 233.643 89.875,237.525 88.686,241.679 89.626 " stroke="none" fill="#f4f4f4" fill-rule="evenodd"></path>
		<path id="path1" d="M130.101 69.512 C 129.611 70.022,128.990 70.712,128.720 71.044 C 128.235 71.641,127.764 170.257,128.234 172.879 C 128.330 173.419,128.825 174.122,129.741 175.024 L 131.104 176.365 199.967 176.303 L 268.830 176.240 269.688 175.655 C 270.159 175.333,270.821 174.672,271.157 174.185 L 271.770 173.301 271.770 122.474 L 271.770 71.647 271.162 70.837 C 270.828 70.392,270.167 69.730,269.693 69.368 L 268.830 68.708 199.911 68.645 L 130.992 68.583 130.101 69.512 M262.643 77.859 C 262.887 78.097,262.892 154.493,262.647 154.930 C 262.505 155.184,259.306 152.123,250.700 143.498 C 239.521 132.295,236.794 129.822,235.616 129.822 C 235.376 129.822,235.111 129.712,235.028 129.577 C 234.810 129.226,233.121 129.276,230.907 129.699 C 228.367 130.185,227.766 130.667,219.824 138.583 C 216.313 142.084,213.205 145.022,212.919 145.113 C 212.233 145.330,213.203 146.257,194.611 127.617 C 177.767 110.729,176.798 109.861,174.333 109.457 C 172.791 109.204,170.270 109.348,169.537 109.732 C 169.317 109.848,168.653 110.178,168.063 110.465 C 167.301 110.836,162.718 115.263,152.293 125.696 C 141.540 136.459,137.542 140.316,137.388 140.074 C 137.273 139.892,137.177 125.772,137.175 108.696 L 137.171 77.649 199.204 77.584 C 260.942 77.518,262.298 77.524,262.643 77.859 M236.742 89.553 C 228.601 91.753,224.771 99.745,228.399 106.967 C 229.179 108.519,231.423 110.977,232.611 111.579 C 233.132 111.843,233.723 112.190,233.925 112.349 C 237.369 115.062,246.533 112.561,249.002 108.233 C 251.850 103.243,251.886 99.000,249.116 94.830 C 246.294 90.582,241.112 88.372,236.742 89.553 " stroke="none" fill="#dcdcdc" fill-rule="evenodd"></path>
	</g>
</svg>